<?xml version="1.0" encoding="UTF-8" standalone="no"?>
<!DOCTYPE svg PUBLIC "-//W3C//DTD SVG 1.1//EN"
 "http://www.w3.org/Graphics/SVG/1.1/DTD/svg11.dtd">
<!-- Generated by graphviz version 15.0.0 (20260523.1842)
 -->
<!-- Title: blueprint Pages: 1 -->
<svg width="255pt" height="188pt"
 viewBox="0.00 0.00 255.00 188.00" xmlns="http://www.w3.org/2000/svg" xmlns:xlink="http://www.w3.org/1999/xlink">
<g id="graph0" class="graph" transform="scale(1 1) rotate(0) translate(4 184)">
<title>blueprint</title>
<polygon fill="white" stroke="none" points="-4,4 -4,-184 250.88,-184 250.88,4 -4,4"/>
<!-- triangular -->
<g id="node1" class="node">
<title>triangular</title>
<g id="a_node1"><a xlink:title="definition | blueprint=reviewed formal=proved agent=blocked">
<path fill="#10b981" stroke="#1f2937" d="M170.5,-180C170.5,-180 30.75,-180 30.75,-180 24.75,-180 18.75,-174 18.75,-168 18.75,-168 18.75,-156 18.75,-156 18.75,-150 24.75,-144 30.75,-144 30.75,-144 170.5,-144 170.5,-144 176.5,-144 182.5,-150 182.5,-156 182.5,-156 182.5,-168 182.5,-168 182.5,-174 176.5,-180 170.5,-180"/>
<text xml:space="preserve" text-anchor="middle" x="100.62" y="-165.05" font-family="Helvetica,sans-Serif" font-size="11.00">triangular</text>
<text xml:space="preserve" text-anchor="middle" x="100.62" y="-151.55" font-family="Helvetica,sans-Serif" font-size="11.00">The triangular&#45;number function</text>
</a>
</g>
</g>
<!-- triangular&#45;step -->
<g id="node2" class="node">
<title>triangular&#45;step</title>
<g id="a_node2"><a xlink:title="lemma | blueprint=reviewed formal=proved agent=blocked">
<path fill="#10b981" stroke="#1f2937" d="M234.88,-108C234.88,-108 82.38,-108 82.38,-108 76.38,-108 70.38,-102 70.38,-96 70.38,-96 70.38,-84 70.38,-84 70.38,-78 76.38,-72 82.38,-72 82.38,-72 234.88,-72 234.88,-72 240.88,-72 246.88,-78 246.88,-84 246.88,-84 246.88,-96 246.88,-96 246.88,-102 240.88,-108 234.88,-108"/>
<text xml:space="preserve" text-anchor="middle" x="158.62" y="-93.05" font-family="Helvetica,sans-Serif" font-size="11.00">triangular&#45;step</text>
<text xml:space="preserve" text-anchor="middle" x="158.62" y="-79.55" font-family="Helvetica,sans-Serif" font-size="11.00">Doubling identity for the recursion</text>
</a>
</g>
</g>
<!-- triangular&#45;step&#45;&gt;triangular -->
<g id="edge1" class="edge">
<title>triangular&#45;step&#45;&gt;triangular</title>
<path fill="none" stroke="#94a3b8" d="M144.29,-108.3C137.55,-116.44 129.37,-126.31 121.92,-135.3"/>
<polygon fill="#94a3b8" stroke="#94a3b8" points="119.45,-132.8 115.76,-142.73 124.84,-137.26 119.45,-132.8"/>
</g>
<!-- gauss&#45;formula -->
<g id="node3" class="node">
<title>gauss&#45;formula</title>
<g id="a_node3"><a xlink:title="theorem | blueprint=reviewed formal=proved agent=blocked">
<path fill="#10b981" stroke="#1f2937" d="M189.25,-36C189.25,-36 12,-36 12,-36 6,-36 0,-30 0,-24 0,-24 0,-12 0,-12 0,-6 6,0 12,0 12,0 189.25,0 189.25,0 195.25,0 201.25,-6 201.25,-12 201.25,-12 201.25,-24 201.25,-24 201.25,-30 195.25,-36 189.25,-36"/>
<text xml:space="preserve" text-anchor="middle" x="100.62" y="-21.05" font-family="Helvetica,sans-Serif" font-size="11.00">gauss&#45;formula</text>
<text xml:space="preserve" text-anchor="middle" x="100.62" y="-7.55" font-family="Helvetica,sans-Serif" font-size="11.00">Closed form for the triangular numbers</text>
</a>
</g>
</g>
<!-- gauss&#45;formula&#45;&gt;triangular -->
<g id="edge2" class="edge">
<title>gauss&#45;formula&#45;&gt;triangular</title>
<path fill="none" stroke="#94a3b8" d="M83.33,-36.48C75.03,-46.1 65.97,-58.76 61.62,-72 56.63,-87.2 56.63,-92.8 61.62,-108 64.75,-117.52 70.31,-126.73 76.27,-134.74"/>
<polygon fill="#94a3b8" stroke="#94a3b8" points="73.39,-136.74 82.38,-142.34 78.84,-132.36 73.39,-136.74"/>
</g>
<!-- gauss&#45;formula&#45;&gt;triangular&#45;step -->
<g id="edge3" class="edge">
<title>gauss&#45;formula&#45;&gt;triangular&#45;step</title>
<path fill="none" stroke="#94a3b8" d="M114.96,-36.3C121.7,-44.44 129.88,-54.31 137.33,-63.3"/>
<polygon fill="#94a3b8" stroke="#94a3b8" points="134.41,-65.26 143.49,-70.73 139.8,-60.8 134.41,-65.26"/>
</g>
</g>
</svg>
